<svg width="103" height="105" viewBox="0 0 103 105" fill="none" xmlns="http://www.w3.org/2000/svg">
<path d="M43.8897 81.353V49.853H46.8896L38.3896 37.353L29.8896 49.853H33.3896V82.353C30.0563 82.0801 23.3896 79.8979 23.3896 73.353V35.853C24.5563 32.0197 28.6896 24.353 35.8896 24.353C39.8896 24.0197 48.5896 25.153 51.3896 32.353C52.8896 29.6864 57.5896 24.353 64.3896 24.353C69.223 24.6864 78.8896 27.753 78.8896 37.353V70.853C79.8896 71.353 83.4896 70.253 89.8896 61.853C91.5563 57.0197 93.4896 44.653 87.8896 33.853C85.723 28.5197 78.1897 16.853 65.3896 12.853C59.723 11.0197 45.8896 8.65302 35.8896 13.853C32.0563 14.6863 22.2896 20.053 13.8896 34.853C11.8896 37.853 8.88965 48.153 12.8896 65.353C13.5563 69.6864 19.2896 81.053 36.8896 91.853C40.0563 93.353 49.0896 96.353 59.8896 96.353C63.3896 96.5197 72.9896 95.153 83.3896 88.353C86.223 86.6864 92.9896 82.053 97.3896 76.853L91.8896 85.353C88.3896 90.0197 77.9896 100.053 64.3896 102.853C54.0563 106.186 28.5897 106.553 9.38968 81.353C0.223013 68.5197 -10.3103 36.253 20.8897 9.85303C24.5563 7.01969 34.4897 1.15302 44.8897 0.353004C52.0563 -0.813663 70.2897 0.253003 85.8897 13.853C89.723 17.1863 98.2897 27.653 101.89 42.853C102.556 48.853 102.99 61.953 99.3897 66.353C96.0563 72.0197 85.2897 83.353 68.8897 83.353V49.853H71.8897L63.3897 37.353L54.8897 49.853H58.3897V81.353C58.3897 83.353 56.7897 87.353 50.3897 87.353C48.223 87.0197 43.8897 85.353 43.8897 81.353Z" fill="url(#paint0_linear_36_75)"/>
<defs>
<linearGradient id="paint0_linear_36_75" x1="51.1708" y1="0" x2="51.1708" y2="104.46" gradientUnits="userSpaceOnUse">
<stop stop-color="#FF1340"/>
<stop offset="1" stop-color="#3221FF"/>
</linearGradient>
</defs>
</svg>
